<?xml version="1.0" encoding="utf-8"?>
<!-- Generator: Adobe Illustrator 16.0.0, SVG Export Plug-In . SVG Version: 6.00 Build 0)  -->
<!DOCTYPE svg PUBLIC "-//W3C//DTD SVG 1.1//EN" "http://www.w3.org/Graphics/SVG/1.1/DTD/svg11.dtd">
<svg version="1.1" id="Layer_1" xmlns="http://www.w3.org/2000/svg" xmlns:xlink="http://www.w3.org/1999/xlink" x="0px" y="0px"
	 width="169.481px" height="169.267px" viewBox="15.976 7.719 169.481 169.267"
	 enable-background="new 15.976 7.719 169.481 169.267" xml:space="preserve">
<g>
	<path fill="#0C0C0D" d="M101.356,63.176c3.954,2.338,7.518,5.078,9.574,9.356c0.602,1.258,0.989,2.632,2.293,3.459
		c0.786,0.499,0.748,1.419,0.806,2.252c0.269,3.877,0.902,7.754,0.017,11.632c-0.185,3.73-2.125,6.645-4.391,9.407
		c-0.688,0.472-1.441,0.976-1.813,1.681c-3.108,5.882-8.377,5.287-13.655,4.603c-1.175-0.154-2.301-0.23-3.435,0.127
		c-5.833-0.055-11.517-0.895-16.906-3.244c-0.589-0.48-1.193-0.947-1.675-1.544c-0.668-1.225-1.547-2.314-2.246-3.523
		c-0.458-0.705-0.725-1.515-1.203-2.211c-1.762-2.922-2.355-6.156-2.562-9.492c-0.174-1.709-0.268-3.351,0.779-4.944
		c0.325-0.495,1.288-1.925-0.497-2.336C58.03,80.949,49.521,83.1,41.04,85.362c-3.654,0.959-7.209,2.389-11.076,2.343
		c-1.733,0.714-2.739,0.32-3.264-1.659c-3.49-13.17-7.052-26.322-10.627-39.468c-0.443-1.627,0.709-1.877,1.7-2.147
		c8.418-2.293,16.854-4.516,25.274-6.805c7.775-2.113,15.537-4.281,23.306-6.427c1.661-1.202,3.72-0.897,5.548-1.464
		c1.771-0.428,3.575-0.755,5.307-1.311c1.895-0.606,2.845-0.237,3.381,1.867c2.338,9.163,4.871,18.276,7.248,27.43
		c0.508,1.957,1.098,3.26,3.552,2.996c1.61-0.174,3.29,0.312,4.938,0.5C98.031,61.795,99.982,61.746,101.356,63.176z"/>
	<path fill="#101624" d="M128.725,44.654c-0.183,0.159-0.404,0.289-0.54,0.479c-2.35,3.312-2.361,3.34-5.954,1.609
		c-0.782-0.377-1.363-0.327-2.049,0.137c-0.681,0.461-1.39,0.965-2.162,1.191c-1.691,0.496-2.396,1.511-2.214,3.252
		c0.086,0.827-0.052,1.652-0.591,2.352c-1.153,0.924-2.498,0.377-3.757,0.489c-1.268-0.366-2.576-0.239-3.865-0.356
		c-1.042-0.094-1.812-0.652-2.443-1.441c-0.773-1.188-0.189-2.463-0.238-3.697c-1.035-1.449-2.771-2.007-4.047-3.168
		c-0.7-0.643-1.395,0.065-2.038,0.395c-3.14,1.605-3.14,1.609-4.849-1.578c-0.708-1.32-1.375-2.665-2.12-3.963
		c-0.903-1.576-0.514-2.573,1.108-3.395c2.225-1.125,3.598-4.574,2.831-6.83c-0.39-1.142-1.584-1.412-2.479-1.955
		c-1.441-0.879-1.718-1.897-0.794-3.305c1.051-1.6,2.131-3.188,3.072-4.854c0.745-1.316,1.729-1.688,3.112-1.254
		c2.427,2.023,5.663,1.906,7.715-0.342c0.739-0.811,0.491-1.904,0.467-2.875c-0.056-2.139,0.936-3.022,3.032-2.854
		c1.896,0.154,3.801,0.244,5.703,0.355c1.733,0.102,1.859,1.26,1.84,2.635c-0.039,2.627,1.873,5.147,4.375,5.875
		c1.123,0.328,1.889-0.523,2.719-0.977c1.746-0.949,2.928-0.729,3.781,1.182c0.71,1.588,1.552,3.125,2.433,4.629
		c0.984,1.68,0.521,2.695-1.14,3.595c-3.25,1.759-3.48,6.541-0.427,8.582c1.557,1.041,1.946,2.116,0.808,3.7
		C129.491,42.994,129.149,43.854,128.725,44.654z"/>
	<path fill="#C1C8CB" d="M57.349,111.688c0.168-0.188,0.335-0.369,0.503-0.557c1.487,0.162,1.54-0.801,1.536-1.889
		c-0.018-4.143,0.012-8.281-0.012-12.423c-0.004-0.619,0.347-1.521-0.395-1.795c-0.857-0.315-1.195,0.631-1.654,1.172
		c-1.502,0.979-2.494,2.527-3.981,3.521c-1.3,0.982-2.46,2.109-3.442,3.414c-0.951,0.258-0.992-0.438-1.109-1.057
		c2.841-2.631,5.68-5.265,8.52-7.896c0.68-0.326,1.171-0.849,1.532-1.5c0.448-1.119-0.38-0.918-1.009-1.026
		c-5.496-0.976-10.989-1.972-16.483-2.962c-0.417-0.545-0.452-1.094-0.022-1.647c0.492-0.362,1.066-0.493,1.648-0.418
		c5.662,0.741,11.299,1.632,16.878,2.869c1.154,1.701,0.7,3.642,0.734,5.483c0.022,1.312-0.118,2.619,0.298,3.896
		c-0.219,3.695,0.359,7.416-0.337,11.101C60.134,112.189,59.581,112.486,57.349,111.688z"/>
	<path fill="#D34A68" d="M30.368,108.641c-0.978,1.723-1.974,3.477-4.258,3.582c-1.668,0.074-3.07-0.57-3.949-2.07
		c-1.254-2.141-0.744-4.406,1.293-5.887c2.158-1.568,4.197-1.111,6.402,1.438C30.513,106.598,31.264,107.475,30.368,108.641z"/>
	<path fill="#70BFEA" d="M61.866,23.281c-2.58-1.539-3.379-3.938-2.074-6.231c1.205-2.117,3.576-2.832,5.785-1.744
		c2.256,1.111,2.979,3.621,1.748,6.205c-0.281,0.59-0.707,1.11-1.065,1.664C64.818,24.18,63.329,23.219,61.866,23.281z"/>
	<path fill="#71BFEA" d="M48.794,102.076c0.369,0.354,0.738,0.705,1.108,1.059c0.153,0.188,0.306,0.373,0.458,0.562
		c0.725,1.164,0.458,2.334,0.02,3.506c-0.055,0.141-0.078,0.283-0.07,0.434c-1.908,2.766-3.895,3.199-6.938,1.521
		c-0.352-0.496-0.703-0.994-1.054-1.49c-0.681-0.877-1.575-1.697-0.78-2.963c1.418-3.269,3.521-4.424,6.299-3.467
		C48.157,101.516,48.476,101.795,48.794,102.076z"/>
	<path fill="#81C270" d="M29.962,87.702c3.617-0.961,7.234-1.922,10.851-2.883c0.306,0.577,0.179,1.189,0.146,1.795
		c-0.185,0.695,0.015,1.508-0.615,2.072c-0.657,0.688-1.314,1.381-1.973,2.07c-2.396,1.549-3.949,1.262-5.99-1.104
		C32.206,88.219,31.342,87.641,29.962,87.702z"/>
	<path fill="#C3CACD" d="M41.776,105.168c-0.605,1.004,0.701,1.592,0.543,2.498c-4.076-0.812-8.013,0.107-11.951,0.977
		c-0.17-0.979-0.342-1.959-0.513-2.938c2.958,1.256,5.854-0.287,8.789-0.211c0.729,0.02,1.468-0.201,2.201-0.312
		C41.15,104.902,41.462,104.91,41.776,105.168z"/>
	<path fill="#85C473" d="M102.428,56.176c-1.385-2.978-1.009-4.715,1.305-6.035c0.884-0.245,1.29,0.33,1.303,1.01
		c0.021,0.945,0.522,1.71,0.7,2.58c-0.093,1.205-0.166,2.416-0.353,3.617c-0.298,0.228-0.642,0.305-1.007,0.305
		C103.319,57.698,102.913,56.885,102.428,56.176z"/>
	<path fill="#C2C8CC" d="M61.866,23.281c1.465-0.036,2.93-0.071,4.395-0.106c0.564,1.256,1.312,2.467,1.652,3.782
		c0.562,2.175,1.773,3.119,3.987,2.774c-1.711,1.013-3.667,1.094-5.548,1.464c0.456-0.532,1.117-0.896,0.635-1.861
		c-0.738-1.472-1.285-3.038-1.919-4.562C64.458,23.301,62.768,24.135,61.866,23.281z"/>
	<path fill="#BEC4C6" d="M102.428,56.176c0.631,0.354,1.262,0.707,1.893,1.06c0.323,0.284,0.326,0.583,0.041,0.896
		c-1.995,1.09-3.562,2.434-3.005,5.045c-1.677-0.653-3.354-1.308-5.03-1.961C100.339,61.934,100.926,58.5,102.428,56.176z"/>
	<path fill="#7DB272" d="M105.355,54.202c-1.072-1.141,0.287-3.254-1.623-4.061c0.395-0.492,0.786-0.983,1.179-1.475
		c0.923,1.07,0.06,2.389,0.49,3.526c0.586,1.101,1.523,1.344,2.711,1.29c1.062-0.049,2.154-0.217,3.207,0.15
		c1.299,0.013,2.6,0.024,3.896,0.039c0.1,0.119,0.129,0.254,0.087,0.404c-0.254,0.438-0.7,0.414-1.08,0.35
		c-1.82-0.312-3.328,0.299-4.661,1.487C107.915,55.945,106.288,55.92,105.355,54.202z"/>
	<path fill="#E1F6FA" d="M41.776,105.168c-0.311,0.006-0.621,0.01-0.932,0.014c0.665-2.268,2.136-3.769,4.316-4.642
		c1.098-0.438,2.061-0.602,2.676,0.695C44.042,101.204,43.087,101.822,41.776,105.168z"/>
	<path fill="#E0F5FB" d="M43.372,109.154c2.668,1.113,5.025,0.814,6.938-1.521c0.068,1.922-1.241,2.514-2.777,2.723
		C46.007,110.562,44.387,110.836,43.372,109.154z"/>
	<path fill="#E1F4DA" d="M32.378,89.653c1.777,1.561,3.742,2.105,5.992,1.104C36.51,93.082,33.727,92.569,32.378,89.653z"/>
	<path fill="#C3C9CC" d="M53.345,99.719c1.146-1.379,2.109-2.967,3.982-3.521C56.204,97.602,55.186,99.125,53.345,99.719z"/>
	<path fill="#D6ECF6" d="M50.38,107.201c-0.008-1.168-0.014-2.338-0.021-3.506C52.044,104.855,51.345,106.027,50.38,107.201z"/>
	<path fill="#B5CFB3" d="M40.342,88.686c0.015-0.84,0.03-1.678,0.045-2.518c0.754-0.104,1.075,0.232,0.993,0.979
		c-0.01,0.515-0.019,1.027-0.027,1.544C41.016,88.69,40.679,88.688,40.342,88.686z"/>
	<path fill="#C3C9CC" d="M58.845,92.682c-0.038,0.98-0.544,1.486-1.532,1.5C57.823,93.682,58.333,93.182,58.845,92.682z"/>
	<path fill="#0E0D0D" d="M119.276,63.534c1.745-6.818,9.719-13.395,16.652-13.759c0.693-0.037,1.312,0.054,1.883,0.446
		c1.369,1.175,1.201,2.785,1.238,4.338c-0.185,4.07,0.25,8.119,0.426,12.178c0.071,1.625,0.72,2.602,2.188,3.243
		c3.118,1.362,6.248,2.694,9.4,3.978c1.309,0.532,2.592,1.116,3.859,1.733c3.619,1.762,3.818,2.709,1.309,5.969
		c-2.98,3.933-6.664,6.937-11.375,8.572c-0.555,0.364-1.25,0.099-1.814,0.409c-0.873,0.184-1.629,0.67-2.447,0.99
		c-2.59,0.33-4.938-0.812-7.4-1.234c-0.877-0.151-1.705-0.555-2.617-0.555c-4.346-1.141-7.227-4.125-9.652-7.681
		c-0.514-0.751-1.004-1.515-1.451-2.31c-0.938-1.172-1.941-2.303-0.938-3.965c0.24-0.396,0.175-1,0.056-1.459
		C117.623,70.715,118.257,67.115,119.276,63.534z"/>
	<path fill="#0D0E0E" d="M165.347,59.208c2.402,5.938,2.291,11.866-0.066,17.786c-0.609,1.205-1.568,0.968-2.559,0.62
		c-5.865-2.061-11.641-4.355-17.319-6.879c-2.64-1.173-2.773-3.254-0.348-4.904c4.266-2.9,8.513-5.828,12.739-8.783
		C162.288,53.904,163.271,54.146,165.347,59.208z"/>
	<path fill="#FAFAFA" d="M165.347,59.208c-2.943-4.686-2.912-4.643-7.576-1.337c-4.066,2.882-8.217,5.646-12.316,8.481
		c-0.796,0.551-1.866,0.976-1.717,2.216c0.136,1.101,1.146,1.339,1.976,1.68c5.675,2.341,11.365,4.638,17.024,7.013
		c0.979,0.41,1.746,0.299,2.543-0.268c-0.012,1.674-1.271,1.182-2.146,1.163c-2.329-0.052-4.318-1.099-6.29-2.433
		c0.83,0.976,1.794,1.762,1.483,3.121c-0.279,1.238-0.767,2.348-2.097,2.815c0.227-0.532,0.387-1.104,0.687-1.592
		c1.05-1.716,0.517-2.688-1.277-3.429c-5.146-2.127-10.233-4.392-15.374-6.531c-1.072-0.446-1.479-1.018-1.496-2.193
		c-0.062-4.404-0.246-8.807-0.384-13.21c0.093-0.144,0.19-0.292,0.197-0.45c0.031-0.982,0.288-2.088,1.373-2.025
		c1.187,0.068,1.011,1.346,1.043,2.211c0.085,2.246,0.001,4.498,0.046,6.746c0.018,0.895-0.156,1.873,0.768,2.488
		c1.104,0.521,1.938-0.125,2.746-0.689c4.705-3.277,9.453-6.494,14.174-9.75c1.465-1.012,1.555-1.967,0.33-3.219
		c-2.336-2.387-4.713-4.69-7.986-5.801c-0.847-0.287-1.768-0.537-2.323-1.361c-0.104-0.239-0.062-0.457,0.101-0.655
		c2.783,0.117,5.273,1.501,7.491,2.754c2.258,1.274,3.905,3.831,5.177,6.272c0.451,0.865,0.287,2.156-1.227,3.127
		C164.085,54.154,165.396,56.062,165.347,59.208z"/>
	<path fill="#C0C6C9" d="M143.038,90.278c0.605-0.016,1.214-0.031,1.818-0.046c-0.279,0.741-1.256,0.376-1.721,1.22
		c1.748,1.25,3.521,2.521,5.301,3.789c0.766,0.545,1.507,0.455,2.321,0.023c6.289-3.334,12.585-6.654,18.896-9.943
		c0.863-0.451,1.155-1.062,1.154-1.986c-0.001-0.705-0.226-1.529,0.574-2.029c0.962,1.66,0.684,3.545,0.97,5.328
		c-0.73,0.078-1.441,0.088-2.15,0.467c-5.699,3.033-11.402,6.07-17.17,8.98c-1.711,0.863-1.756,1.508-0.13,2.32
		c1.034,0.518,1.663,1.663,2.914,1.811c1.091,0.578,2.38,0.854,3.081,2.025c0.053,1.066-0.423,1.775-1.437,2.121
		c-0.981-0.223-1.494-1.016-2.083-1.715c-3.789-3.337-8.186-5.839-12.205-8.854c-0.973-0.729-1.311-0.356-1.312,0.689
		c-0.008,5.135-0.056,10.268,0.003,15.399c0.022,2.021,1.99,1.207,2.993,1.814c0.15,0.312,0.078,0.559-0.218,0.742
		c-1.425,0.346-2.698,0.162-3.686-1.045c-0.665-4.545-0.153-9.109-0.302-13.666c-0.048-1.491-0.018-2.987,0.011-4.481
		C140.696,91.643,141.327,90.532,143.038,90.278z"/>
	<path fill="#D34B67" d="M172.354,86.633c-1.506-1.562-1.014-3.484-0.97-5.33c0.81-1.063,1.663-2.019,3.134-2.198
		c2.076-0.255,3.812,0.208,4.812,2.179c0.924,1.82,0.527,3.59-0.738,5.059c-1.415,1.643-3.245,1.797-5.176,0.924
		C173.044,87.098,172.708,86.846,172.354,86.633z"/>
	<path fill="#FCFDFE" d="M177.351,33.198c-0.254,1.717-1.139,2.997-2.961,2.413c-1.461-0.468-3.654-0.493-3.54-3.007
		c0.093-2.038,1.501-3.026,3.165-3.287c1.949-0.307,3.027,0.982,3.336,2.881C177.351,32.531,177.351,32.865,177.351,33.198z"/>
	<path fill="#FCFCFC" d="M158.829,102.189c-1.225-0.322-2.232-0.972-3.011-1.978c3.047-1.027,6.049,0.402,9.085,0.197
		c0.131-0.009,0.298,0.514,0.447,0.787c0.228,1.753,2.34,2.414,2.119,4.71c-0.43,4.459-3.566,6.471-7.621,4.336
		c0.137-0.197,0.312-0.35,0.531-0.449c0.312-0.115,0.644-0.15,0.967-0.223c2.65-0.582,3.92-1.936,3.859-4.102
		c-0.062-2.137-1.005-3.016-3.927-3.645c-0.747-0.094-1.444,0.102-2.139,0.35C159.038,102.182,158.934,102.184,158.829,102.189z"/>
	<path fill="#FCFDFE" d="M160.38,27.18c2.039,1.42,1.023,3.543,0.811,5.17c-0.393,2.959-3.605,4.998-6.703,4.843
		c-1.254-0.063-1.276-0.062-1.159,1.144c0.062,0.629-0.472,0.571-0.767,0.7c-0.933,0.407-1.43-0.368-1.873-0.938
		c-0.83,1.427-1.583,2.721-2.336,4.015c-1.403-0.187-1.637-0.428-0.973-1.635c1.029-1.871,1.985-3.851,3.927-5.032
		c1.778-0.242,3.694,0.616,5.347-0.665c2.178-1.164,3.273-2.923,3.087-5.44c-0.048-0.652,0.008-1.322,0.361-1.916
		C160.193,27.342,160.286,27.262,160.38,27.18z"/>
	<path fill="#C3CBCE" d="M151.337,35.704c-1.146,1.631-2.318,3.242-3.412,4.905c-0.361,0.548-1.086,1.401,0.428,1.505
		c0.166,0.027,0.332,0.057,0.498,0.085c-0.007,0.183-0.014,0.365-0.021,0.547c-2.54,0.708-5.019,0.429-7.451-0.489
		c4.15-0.205,5.581-3.607,7.539-6.399c0.354-0.507,0.488-1.027,0.401-1.623c0.093-0.05,0.188-0.099,0.278-0.147
		c0.537,0.084,0.942,0.444,1.416,0.666c0.187,0.106,0.344,0.246,0.479,0.412C151.572,35.381,151.521,35.562,151.337,35.704z"/>
	<path fill="#FCFDFE" d="M155.231,23.26c0.873-0.021,1.746-0.043,2.619-0.064c0.805,0,1.609,0,2.768,0
		c-0.998,1.135-1.157,2.066,0.06,2.884c0.742,0.499-0.267,0.709-0.297,1.103c0.001,0-0.121,0.086-0.121,0.086
		C158.394,26.168,156.616,24.959,155.231,23.26z"/>
	<path fill="#FCFDFE" d="M163.366,31.163c-0.312-0.037-0.74-0.009-0.721-0.434c0.031-0.621,0.576-0.947,1.047-1.193
		c0.312-0.163,0.568,0.139,0.6,0.518C164.345,30.727,164.09,31.139,163.366,31.163z"/>
	<path fill="#0C0C0C" d="M141.466,111.656c1.132,0.17,2.264,0.34,3.395,0.508c5.576,0.939,10.46,8.715,10.279,14.771
		c-0.202,6.744-6.086,13.541-12.222,14.479c-1.267,0.193-1.7,0.787-1.956,2.078c-0.412,2.078-0.64,4.252-1.727,6.156l0.008-0.021
		c-1.823,4.152-3.971,8.133-6.463,11.924c-4.143,4.479-8.521,8.658-14.134,11.295c-5.011,2.354-10.191,3.83-15.802,4.088
		c-16.453,0.748-28.508-6.562-37.428-19.883c-2.358-4.6-4.273-9.354-4.959-14.521c-0.125-0.945-0.582-1.461-1.551-1.65
		c-7.049-1.383-10.949-5.811-12.242-12.738c-0.061-0.322-0.211-0.627-0.318-0.939c0.374-3.033,0.674-6.037,2.361-8.77
		c2.076-3.363,5.114-5.32,8.64-6.738c1.897,0.215,2.813-0.316,2.725-2.541c-0.139-3.43,0.124-6.873,0.216-10.312
		c-0.476-1.75-0.061-3.399,0.545-5.276c1.655,0.897,2.517,1.802,2.352,3.849c-0.286,3.528-0.405,7.097,0.127,10.632
		c0.371,1.979,0.241,3.982,0.208,5.977c-0.03,1.832,0.796,2.451,2.56,2.525c2.324,0.104,4.078-0.438,5.569-2.461
		c5.291-7.172,16.382-8.111,22.503-1.307c0.391,0.432,0.917,0.77,1.193,1.27c1.896,3.416,5.082,2.449,7.977,2.324
		c1.108-0.049,1.562-1.158,2.169-1.928c5.511-6.977,14.377-7.689,20.996-3.303c1.417,0.938,2.524,2.129,3.513,3.496
		c1.225,1.695,4.943,2.562,6.773,1.697c0.974-0.461,0.847-1.34,0.881-2.146c0.123-2.906-0.216-5.824,0.245-8.725
		c0.628-3.033-0.038-6.123,0.403-9.164c0.638-1.035,0.688-2.959,2.76-1.84c0.074,4.953-0.007,9.908,0.049,14.863
		C141.12,110.1,140.753,110.973,141.466,111.656z"/>
	<path fill="#FAFAFA" d="M84.549,174.676c-0.156,0.445-0.411,0.416-0.609,0.287c-0.239-0.152-0.43-0.385-0.642-0.584
		c0.15-0.043,0.326-0.156,0.445-0.115C84.032,174.365,84.294,174.541,84.549,174.676z"/>
	<path fill="#FAFAFA" d="M139.237,149.648c0.527-2.438,1.095-4.861,1.562-7.309c0.158-0.822,0.627-1.02,1.33-1.203
		c7.139-1.887,11.579-6.289,12.285-12.141c0.93-7.689-1.812-12.668-9.133-16.566c-0.146-0.078-0.281-0.178-0.424-0.268
		c0.021-0.156,0.021-0.311,0-0.469c4.303,1.055,6.978,3.951,8.916,7.752c0.405,0.795,0.228,2.09,1.574,2.25
		c0.09,1.641,0.176,3.287,0.276,4.92c0.251,4.078-1.769,7.488-4.286,10.467c-1.356,1.605-3.271,2.742-4.955,4.062
		c-0.367,0.287-0.909,0.719-1.244,0.627c-3.556-0.98-3.833,1.537-4.271,3.904C140.604,147.115,140.56,148.643,139.237,149.648z"/>
	<path fill="#F4FAF4" d="M160.452,110.145c-0.199,0.031-0.4,0.062-0.604,0.098c-1.085,0.254-1.545-0.984-2.498-1.045
		c-1.072-0.781-1.463-1.832-1.469-3.152c-0.004-0.955,0.199-2.006-0.531-2.848c0.01-0.186,0.02-0.369,0.029-0.555
		c0.979,0.121,1.545,0.783,2.021,1.559C157.769,106.516,159.163,108.303,160.452,110.145z"/>
	<path fill="#FCFCFC" d="M155.351,103.197c1.494,0.617,1.107,2.148,1.193,3.174c0.09,1.061,0.512,1.896,0.807,2.826
		c-2.123-0.604-2.888-1.863-2.092-4.031C155.476,104.578,155.329,103.857,155.351,103.197z"/>
	<path fill="#FCFCFC" d="M168.867,107.117c-0.647-1.494-0.931-2.73-0.043-3.695c0.771-0.838,1.907,0.406,1.205,1.48
		C169.628,105.516,169.485,106.219,168.867,107.117z"/>
	<path fill="#FCFCFC" d="M171.828,111.396c-0.557-1.332-0.646-2.125,0.011-3.166C172.556,109.266,172.448,110.061,171.828,111.396z"
		/>
	<path fill="#0D0E0E" d="M141.376,42.256c2.486,0.104,5-0.143,7.451,0.489c4.473,1.354,8.273,3.714,11.238,7.378
		c0.977,1.205,1.02,2.23-0.311,3.141c-5.331,3.656-10.67,7.299-16.006,10.947c-0.57,0.389-1.188,0.579-1.882,0.471
		c-1.182-0.811-1.276-2.017-1.271-3.303c0.014-2.906,0.406-5.88-0.113-8.701c-0.59-3.209-0.274-6.321-0.141-9.481
		C140.688,42.883,141.032,42.57,141.376,42.256z"/>
	<path fill="#6DC0EA" d="M155.231,23.26c1.98,0.953,3.82,2.082,5.027,4.008c0.289,3.242,0.441,6.428-3.332,7.971
		c-1.859,0.602-3.717,0.947-5.562-0.051l-0.006-0.004c-0.848-0.586-1.518-1.422-2.525-1.784c-1.789-1.815-1.06-4.011-0.925-6.117
		c1.099-2.67,3.067-4.042,5.976-4.021C154.332,23.26,154.782,23.26,155.231,23.26z"/>
	<path fill="#181F2B" d="M119.276,63.534c0.01,0.495,0.183,1.061,0.001,1.473c-1.438,3.305-0.224,6.709-0.509,10.026
		c-0.173,2.017,0.288,3.431,1.5,4.815c-1.131,0.654-2.289,0.142-3.406,0c-1.529-0.194-2.129,0.203-1.932,1.852
		c0.236,1.977,0.264,3.99-0.064,5.963c-0.167,1.006-0.135,2.227-1.438,2.66c0.115-3.367,0.742-6.705-0.006-10.113
		c-0.394-1.787,0.219-3.748-1.593-5.183c-0.618-0.493-1.038-1.502-0.896-2.495c1.09,2.63,3.252,3.311,5.87,3.48
		c1.427,0.094,1.726-0.215,1.496-1.582C117.673,70.727,117.511,67.036,119.276,63.534z"/>
	<path fill="#FCFDFE" d="M181.647,28.713c-1.102-0.097-2.497,0.312-2.688-1.205c-0.189-1.517-0.771-3.567,0.721-4.406
		c1.521-0.856,3.655-0.204,5.188,0.451c1.197,0.513,0.232,2.221,0.02,3.408C184.519,29,182.917,28.581,181.647,28.713z"/>
	<path fill="#FEFEFE" d="M185.034,17.41c-0.067,0.694-0.146,1.265-0.178,1.838c-0.047,0.894,0.188,2.107-0.954,2.278
		c-1.437,0.215-3.04,0.005-4.173-0.938c-0.76-0.635-0.486-1.854-0.131-2.81c0.135-0.367,0.449-1.056,0.729-0.851
		c1.6,1.179,2.365-0.174,3.539-0.813C185.208,15.383,184.685,17.021,185.034,17.41z"/>
	<path fill="#FEFEFE" d="M168.532,12.784c-1.093-0.371-2.631,0.576-2.977-0.771c-0.279-1.086,0.293-2.4,0.537-3.604
		c0.039-0.197,0.306-0.409,0.518-0.502c1.854-0.824,2.65,1.312,4.223,1.562c0.95,0.151,0.65,1.648,0.398,2.431
		C170.759,13.366,169.334,12.318,168.532,12.784z"/>
	<path fill="#BAC0C1" d="M140.345,43.197c0.219,6.329,0.455,12.655,0.643,18.985c0.027,0.961,0.313,1.764,0.886,2.5
		c-1.636-0.26-1.437-1.584-1.453-2.67c-0.056-3.103-0.021-6.205-0.021-9.348c-1.651,0.008-1.271,1.514-2.015,2.04
		c-0.3-1.481,0.035-3.043-0.573-4.483c1.92,0.511,1.891-0.885,2.062-2.1C140.099,46.487,139.27,44.75,140.345,43.197z"/>
	<path fill="#FCFDFE" d="M153.882,23.262c-2.186,0.842-4.447,1.572-5.557,3.937c-0.262,0.291-0.404,0.808-0.975,0.504
		C148.513,23.465,150.665,22,153.882,23.262z"/>
	<path fill="#F2FBF0" d="M109.38,55.76c1.39-2.617,3.979-1.008,5.923-1.683c-3.104,0.271-4.992,2.738-7.481,4.119
		c-0.479,0.267-1.01,0.702-1.479-0.044c-0.156-0.879,0.684-0.836,1.093-1.194c0.418-0.249,0.771-0.581,1.139-0.896
		C108.81,55.874,109.069,55.749,109.38,55.76z"/>
	<path fill="#E0F7FB" d="M147.353,27.703c0.325-0.168,0.65-0.336,0.975-0.504c-0.043,2.069-1.102,4.293,0.933,6.042
		c0.376,0.277,0.431,0.631,0.241,1.04l-0.183-0.048c-1.913-0.616-1.902-2.238-1.966-3.803
		C147.317,29.522,147.351,28.612,147.353,27.703z"/>
	<path fill="#FCFDFE" d="M144.031,28.739c-1.015-0.968-1.888-1.673-0.955-2.891c0.272-0.355,0.81-0.668,1.009-0.279
		C144.579,26.53,144.429,27.557,144.031,28.739z"/>
	<path fill="#A8CB9F" d="M107.909,57.234c-0.521,0.307-1.045,0.612-1.564,0.919c-0.66-0.007-1.321-0.014-1.981-0.021
		c-0.014-0.299-0.025-0.598-0.041-0.896c0.347-0.017,0.69-0.034,1.036-0.052c0.32-0.262,0.67-0.459,1.089-0.508
		C107.013,56.652,107.536,56.745,107.909,57.234z"/>
	<path fill="#FCFDFE" d="M142.314,36.266c-0.083,0.299-0.071,0.734-0.544,0.621c-0.367-0.088-0.414-0.465-0.371-0.793
		c0.041-0.31,0.066-0.736,0.537-0.623C142.302,35.559,142.327,35.93,142.314,36.266z"/>
	<path fill="#6DBFEB" d="M77.313,99.719c-1.354-0.006-2.04-1.006-2.771-1.9c-5.881-7.186-6.398-17.28-1.293-24.878
		c5.235-7.788,14.437-11.054,23.422-8.318c0.713,0.218,1.438,0.396,2.156,0.593c1.297,0.465,2.526,1.037,3.483,2.069
		c10.358,7.187,12.118,22.093,3.656,30.981c-0.847,0.849-1.65,1.74-2.57,2.515c-0.578,0.644-1.268,1.116-2.088,1.395
		c-4.219,0.758-8.427,0.162-12.597-0.318C84.88,101.413,81.053,100.752,77.313,99.719z"/>
	<path fill="#FEFEFE" d="M138.398,105.691c-0.034,3.242-0.124,6.486-0.075,9.727c0.021,1.377-0.403,2.012-1.832,1.934
		c-1.158-0.064-2.33-0.055-3.489,0.01c-1.467,0.08-2.354-0.486-3.204-1.77c-5.818-8.746-17.949-8.916-23.975-0.291
		c-1.109,1.594-2.188,2.281-4.037,2.01c-0.813-0.121-1.68-0.162-2.486-0.031c-1.802,0.293-2.755-0.465-3.779-1.969
		c-5.927-8.705-18.422-8.533-24.216,0.227c-0.892,1.35-6.636,2.447-7.89,1.496c-0.551-0.416-0.4-1.051-0.414-1.617
		c-0.053-2.408-0.092-4.812-0.137-7.223c-0.562-3.354-0.147-6.736-0.231-10.103c-0.034-1.354,0.767-1.744,1.979-1.238
		c0.995,0.416,1.862,1.07,2.797,1.594c1.033,0.591,1.971,1.361,3.127,1.738c0.217,0.07,0.43,0.156,0.64,0.244
		c0.878,0.459,1.751,0.931,2.651,1.347c5.451,2.273,11.187,3.105,17.031,3.396c3.382,0.041,6.762,0.578,10.141,0.27
		c9.158-0.842,18.402-1.172,27.193-4.358c1.881-0.682,3.727-1.422,5.479-2.382c1.084-0.396,1.981-1.154,3.046-1.579
		c1.146-0.457,1.945-0.228,1.875,1.242C138.474,100.803,138.835,103.258,138.398,105.691z"/>
	<path fill="#BAC5C9" d="M113.426,90.323c1.397-3.178,1.041-6.49,0.612-9.766c-0.196-1.502,0.011-1.992,1.602-1.571
		c1.514,0.401,3.084,0.584,4.629,0.862c2.299,4.271,5.378,7.699,10.105,9.343c2.074,0.799,4.243,1.312,6.416,1.694
		c1.799,0.314,1.521,1.234,0.936,2.271c-0.88,1.558-2.245,2.644-3.807,3.502c-5.77,3.171-12,4.831-18.477,5.725
		c-2.392,0.33-4.785,0.604-7.205,0.525c-0.551-0.018-1.245,0.18-1.517-0.521c-0.259-0.67,0.307-1.072,0.698-1.474
		c0.697-0.71,1.346-1.471,2.062-2.162C111.383,96.215,113.03,93.561,113.426,90.323z"/>
	<path fill="#E6E7E9" d="M29.274,44.647c4.088-1.518,8.297-2.588,12.573-3.403c0.006,1.14-1.078,1.079-1.697,1.515
		c-0.575,0.404-1.101,0.806-0.821,1.594c0.271,0.773,0.928,0.873,1.629,0.761c1.631-0.261,3.186-0.888,4.845-1.024
		c1.93,0.461,2.981-1.613,4.741-1.648c1.591-0.362,3.215-0.459,4.828-0.655c1.066,0.146,1.324,0.668,0.742,1.584
		c-0.693,0.961-1.884,0.705-2.828,1.058c3.479-0.692,4.291-0.271,5.123,2.986c0.403,1.584,1.137,3.131,0.836,4.846
		c-0.093,0.231-0.246,0.414-0.447,0.556c-0.969-1.767-1.254-3.743-1.699-5.662c-0.43-1.856-1.422-2.457-3.25-1.883
		c-1.962,0.616-3.909,1.331-5.994,1.456c-0.411-0.137,0.581-1.161-0.432-0.803c-1.432,0.508-2.979,0.644-4.334,1.381
		c-2.772,1.113-2.815,1.201-2.019,4.172c0.32,1.193,0.74,2.355,1.125,3.529c0.277,0.848,0.685,1.551,1.755,1.28
		c0.907-0.229,1.062-0.916,0.957-1.735c-0.097-0.736-0.203-1.479,0.219-2.164c0.091-0.074,0.184-0.146,0.275-0.219
		c0.846,1.91,1.486,3.875,1.566,5.985c-3.114,1.562-3.114,1.562-2.809,5.229c0.027,0.336-0.059,0.646-0.268,0.918
		c-0.227,0.115-0.438,0.094-0.637-0.064c-0.76-1.45-1.758-1.872-3.408-1.244c-2.893,1.1-6.104,1.209-8.867,2.758
		c-0.2,0.157-0.418,0.18-0.65,0.088c-1.49-2.679-1.533-2.687-6.041-1.023c-1.709-4.932-3-9.977-4.068-15.081
		c1.186-0.103,2.252,0.685,3.562,0.164c2.109-0.836,2.334-1.479,0.633-3.068c-0.24-0.224-0.537-0.388-0.692-0.694
		c1.776-0.823,3.63-1.362,5.591-1.504c0.189,0.222,0.18,0.479-0.023,0.641c-0.78,0.617-1.824,1.158-1.061,2.383
		c0.654,1.049,1.648,0.447,2.498,0.277c0.979-0.195,1.996-0.35,2.889-0.778c1.055-0.507,3.266-0.146,2.655-2.131
		c-0.526-1.711-2.119-0.412-3.241-0.28c-0.488,0.059-0.951,0.303-1.445,0.381C30.76,45.256,29.919,45.412,29.274,44.647z"/>
	<path fill="#80C46D" d="M56.907,58.702c1.471,5.26,2.941,10.52,4.416,15.779c0.307,1.095-0.076,1.601-1.195,1.966
		c-4.692,1.53-4.709,1.53-5.856-3.396c-0.694-2.979-1.503-5.934-2.261-8.899c0.186-0.763,0.054-1.515,0.015-2.269
		c-0.151-0.326-0.396,0.203-0.1,0.049c0.101-0.051,0.153,0,0.153,0.158c-0.002,0.395,0.098,0.812-0.242,1.135
		c-1.461-3.93-2.254-8.051-3.398-12.07c-0.51-1.794,1.239-1.326,1.909-1.938c1.491-0.437,3-1.758,4.446,0.09
		c0.199,1.265,0.398,2.529,0.6,3.793C55.813,54.99,55.986,56.947,56.907,58.702z"/>
	<path fill="#FDFDFD" d="M41.38,87.149c-0.331-0.326-0.662-0.653-0.993-0.979c0.144-0.451,0.284-0.902,0.427-1.354
		c7.736-2.102,15.475-4.197,23.209-6.307c0.954-0.26,1.893-0.58,2.838-0.873c1.122,1.377,1.059,2.679-0.248,4.093
		c-1.666,1.806-3.783,3.185-5.017,5.405c-0.5,0.901-0.574,2.121-1.765,2.554c-5.431-0.021-10.619-1.761-15.983-2.25
		C43.023,87.365,42.202,87.247,41.38,87.149z"/>
	<path fill="#111725" d="M109.484,98.75c-0.824,1.105-1.646,2.211-2.688,3.609c6.221-0.059,12.04-1.017,17.767-2.605
		c2.961-0.822,5.863-1.826,8.543-3.385c1.153-0.67,2.312-1.336,3.207-2.338c0.646-0.723,1.738-1.451,1.389-2.463
		c-0.324-0.943-1.605-0.534-2.449-0.702c-1.711-0.341-3.433-0.585-4.875-1.676c2.604,0.562,5.228,1.063,7.811,1.717
		c0.896,0.226,1.754,0.282,2.646,0.265c0.387,1.033,0.475,2.062-0.062,3.078c-1.147,0.149-1.32,1.266-1.929,1.951
		c-1.693,0.971-3.479,1.801-4.946,3.127c-5.257,3.076-11.091,4.3-17.002,5.218c-8.646,1.346-17.323,1.879-26.037,0.621
		c1.039-0.832,2.208-0.525,3.31-0.275c2.705,0.613,5.445,0.371,8.141,0.215c1.769-0.104,2.915-1.691,3.882-3.127
		C107.073,100.667,108.027,99.461,109.484,98.75z"/>
	<path fill="#E7E8E9" d="M58.799,52.814c0.044-0.226,0.089-0.452,0.134-0.679c0.466-0.231,0.968-0.148,1.458-0.16
		c1.494-0.031,2.153-0.76,1.744-2.229c-0.509-1.824-1.115-3.619-1.568-5.461c-0.25-1.014-0.946-1.202-1.903-1.021
		c-0.929,0.174-1.897,0.752-2.812-0.07c0.267-0.555,0.365-1.025-0.509-0.999c0.152-1.369,1.43-1.093,2.228-1.49
		c0.765-0.379,1.651-0.687,1.41-1.729c-0.274-1.184-1.245-0.803-2.036-0.649c-1.047,0.202-2.072,0.621-3.167,0.274
		c-0.226-0.098-0.401-0.254-0.536-0.457c2.465-0.914,4.95-1.76,7.596-1.988c1.986,3.127,1.988,3.132,5.927,1.979
		c0.8-0.235,1.606-0.437,2.417-0.632c0.715-0.173,1.253-0.542,1.123-1.378c-0.127-0.812-0.689-1.058-1.46-0.998
		c-0.892,0.069-1.836,0.379-2.565-0.465c3.227-1.386,6.684-2.005,10.053-2.885c2.518-0.658,1.814,1.596,2.095,2.878
		c-0.959,0.383-0.959-0.612-1.396-0.978c-0.836-0.699-3.322-0.332-3.738,0.647c-0.461,1.086-0.028,1.881,1.211,1.755
		c1.402-0.143,2.764-0.57,3.914-1.471c0.619,1.824,1.475,3.584,1.531,5.564c-0.625,0.297-1.016-0.134-1.166-0.57
		c-0.654-1.914-1.93-1.354-3.234-0.92c-1.803,0.6-0.861,1.834-0.697,2.882c0.359,2.278,1.495,4.384,1.521,6.739
		c-0.231,0.105-0.455,0.097-0.668-0.045c-0.765,0.004-1.527,0.008-2.293,0.012c-0.07-0.098-0.142-0.195-0.215-0.291
		c-0.171-2.062-0.549-4.077-1.182-6.057c-0.432-1.352-1.203-1.902-2.594-1.522c-0.237,0.065-0.487,0.089-0.725,0.163
		c-6.156,1.921-6.291,0.428-4.31,7.164c0.253,0.863,0.557,1.742,0.305,2.674c-0.873,0.98-0.44,2.234-0.702,3.343
		c-0.425,0.44-0.994,0.565-1.558,0.662c-1.517,0.26-1.8,1.123-1.405,2.501c0.327,1.146,0.871,2.374-0.251,3.441
		C59.898,57.895,59.044,55.434,58.799,52.814z"/>
	<path fill="#6CBDE8" d="M38.747,66.332c1.588-0.276,1.871,0.356,2.082,1.15c1.061,4,2.129,7.999,3.228,11.987
		c0.224,0.81-0.022,1.318-0.779,1.537c-1.352,0.39-2.721,0.719-4.083,1.07c-1.043,0.27-1.297-0.479-1.496-1.216
		c-1.076-3.998-2.131-8.001-3.193-12.002c-0.16-0.606-0.18-1.216,0.531-1.443C36.454,66.961,37.894,66.579,38.747,66.332z"/>
	<path fill="#CF4864" d="M75.286,56.295c0.16,2.164,0.809,4.229,1.522,6.241c0.495,1.396,0.321,2.241-0.828,3.193
		c-4.341,3.597-4.276,3.624-5.606-1.894c-0.578-2.402-1.34-4.759-2.018-7.136c-0.136-0.202-0.197-0.423-0.251-0.666
		c-0.679-3.062-0.685-3.06,2.229-3.968c3.584-0.812,3.58-0.811,4.566,2.831C75.027,55.364,75.063,55.856,75.286,56.295z"/>
	<path fill="#131927" d="M59.831,89.69c0.842-3.311,2.816-5.771,5.699-7.53c1.831-1.116,2.34-2.586,1.329-4.521
		c0.489-0.498,1.234-0.67,1.255,0.119c0.03,1.193-0.049,2.64-0.693,3.541c-0.977,1.371-0.75,2.688-0.67,4.096
		c-3.982,5.16-3.758,6.541,1.676,10.299c0.271,0.188,0.55,0.363,0.808,0.566c0.312,0.32,0.608,0.658,0.992,0.9
		c0.825,1.105,2.079,1.959,2.127,3.534c-0.515,0.37-1.048,0.271-1.586,0.063l0.044,0.022c-0.936-0.724-1.955-1.269-3.117-1.53
		c-1.645-0.326-2.771-1.678-4.832-2.546c0,4.063,0,7.774,0,11.483c-1.188-3.273-0.301-6.654-0.479-9.982
		c-0.112-2.086,0.069-2.096-1.418-3.961c-0.478,1.475-0.621,3.025-0.677,4.588C60.137,95.789,59.984,92.739,59.831,89.69z"/>
	<path fill="#FCFCFC" d="M76.388,48.166c-1.745-2.702-1.866-5.901-2.689-8.883c-0.217-0.78,0.482-0.833,1.008-1.092
		c2.49-1.229,4.254-0.697,5.236,1.981c0.396,0.58,0.469,1.236,0.463,1.912c0.301,0.68,0.309,1.434,0.497,2.143
		c0.288,1.084,1.527,2.414,0.048,3.332C79.618,48.385,78.085,49.357,76.388,48.166z"/>
	<path fill="#FBFBFB" d="M24.29,64.814c1.072-1.989,3.215-1.737,4.871-1.884c1.242-0.11,1.178,1.642,1.199,2.771
		c0.483,1.802,0.854,3.64,1.389,5.417c0.377,1.258,0.361,2.2-0.959,2.529c-1.416,0.354-3.02,1.261-4.168-0.663
		c-0.437-0.729-0.346-1.589-0.783-2.287C25.165,68.779,24.388,66.885,24.29,64.814z"/>
	<path fill="#FAFAFA" d="M27.415,76.698c-0.025-0.159-0.051-0.318-0.076-0.479c0.191-2.467,2.281-2.351,3.836-2.526
		c2.102-0.238,1.354,2.047,2.173,3.005c0.492,1.616,1.032,3.219,1.452,4.854c0.175,0.68,0.688,1.695-0.77,1.729
		c-1.512-0.156-3.022,1.651-4.304,0.543c-1.114-0.967-0.957-2.869-1.481-4.326C27.923,78.598,27.735,77.62,27.415,76.698z"/>
	<path fill="#FAFAFA" d="M43.846,64.2c-0.106-0.396-0.201-0.795-0.321-1.188c-1.277-4.154-0.915-4.668,3.443-4.86
		c0.961,2.246,1.595,4.58,1.902,7.003c0.102,1.202,1.278,2.468-0.305,3.561c-1.939,1.338-3.583,0.838-4.318-1.44
		C43.931,66.291,43.232,65.321,43.846,64.2z"/>
	<path fill="#F8F8F8" d="M50.398,70.695c0.575,1.789,1.351,3.522,1.487,5.431c0.24,2.321,0.01,2.473-2.861,3.121
		c-1.885,0.426-1.691-0.893-2.054-1.967c-0.56-1.656-0.985-3.333-1.377-5.032c-0.281-1.223-0.988-2.456,0.899-2.972
		C48.13,68.827,49.79,68.316,50.398,70.695z"/>
	<path fill="#F9FAFA" d="M60.771,60.35c0.147-0.911,0.084-1.791-0.173-2.693c-1.053-3.671-0.84-3.911,3.236-3.936
		c1.596,2.709,1.863,5.836,2.66,8.787c0.383,1.412-1.076,1.61-2.086,1.901c-1.101,0.317-2.192,0.399-2.705-0.917
		c-0.352-0.906-0.367-1.928-0.873-2.794C60.682,60.605,60.661,60.489,60.771,60.35z"/>
	<path fill="#FBFBFB" d="M66.274,34.661c0.82-0.056,1.702,0.061,2.448-0.205c1.558-0.554,1.953,0.1,2.353,1.497
		c0.45,1.575-0.334,1.92-1.49,2.207c-1.762,0.437-3.616,0.66-5.264,1.366c-2.183,0.936-3.041,0.229-3.257-1.904
		c-0.05-0.49-0.151-0.978-0.229-1.466C62.593,35.455,64.349,34.748,66.274,34.661z"/>
	<path fill="#FBFBFB" d="M45.848,44.696c-1.608,0.348-3.265,0.554-4.81,1.087c-1.367,0.474-1.983,0.039-2.472-1.159
		c-0.569-1.396,0.201-1.966,1.31-2.429c0.673-0.281,1.315-0.632,1.973-0.952c0.131-0.123,0.277-0.146,0.441-0.072
		c1.27-0.305,2.537-0.606,3.787-0.994c1.209-0.375,2.469-0.658,2.912,1.131c0.394,1.593,0.075,2.705-1.74,3.035
		C46.782,44.428,46.245,44.314,45.848,44.696z"/>
	<path fill="#E1E1E3" d="M60.833,60.698c0.588,0.289,0.861,0.88,0.901,1.419c0.153,2.037,1.103,2.073,2.872,1.697
		c2.059-0.438,1.502-1.472,1.165-2.706c-0.67-2.456-1.293-4.926-1.937-7.389c0.037-1.199-0.191-2.438,0.52-3.539
		c0.294-0.26,0.633-0.379,1.026-0.334c0.247,0.069,0.446,0.207,0.598,0.412c-1.797,0.709-1.83,1.936-1.349,3.621
		c1.617,5.666,3.128,11.364,4.592,17.072c0.654,2.551-1.77,4.812-4.262,4.139c-0.518-0.141-0.605-0.531-0.703-0.912
		C63.106,69.688,61.972,65.193,60.833,60.698z"/>
	<path fill="#B5BEC4" d="M69.355,96.758c-2.126-0.811-3.856-2.182-5.228-3.951c-1.981-2.559-0.953-5.354,2.623-7.41
		c0.201,3.453,1.015,6.75,2.543,9.861C69.743,95.741,69.667,96.245,69.355,96.758z"/>
	<path fill="#F7F7F7" d="M23.724,46.135c1.624-0.039,2.406,0.916,2.576,2.375c0.199,1.725-1.333,1.459-2.301,1.916
		c-1.484,0.699-2.738,0.75-3.777-0.692C19.099,46.833,19.099,46.833,23.724,46.135z"/>
	<path fill="#DCDEDF" d="M50.398,70.695c-0.838-1.214-1.776-1.583-3.345-1.101c-1.432,0.44-1.697,0.918-1.241,2.256
		c0.533,1.562,0.736,3.24,1.322,4.777c0.331,0.868-0.283,2.69,1.79,2.285c1.587-0.311,3.212-0.541,2.961-2.787
		c0.938,1.561,0.729,2.711-1.247,2.971c-1.442,0.19-3.283,1.922-3.964-1.203c-0.999-4.582-2.682-9.002-3.42-13.656
		c0.197-0.012,0.395-0.023,0.591-0.036c0.114,0.563,0.079,1.229,0.374,1.672c0.685,1.028-0.191,3.181,2.39,2.913
		c2.608-0.271,2.464-1.83,2.261-3.629C49.767,66.896,50.196,68.764,50.398,70.695z"/>
	<path fill="#DFE1E2" d="M76.388,48.166c0.413-0.001,0.84,0.064,1.238-0.015c3.44-0.688,3.604-0.971,2.838-4.35
		c-0.125-0.549-0.043-1.144-0.057-1.718c1.614,4.229,2.623,8.625,3.574,13.037c-0.097,0.063-0.195,0.128-0.292,0.192
		c-1.562-0.838-1.271-2.532-1.771-3.856c-0.391-1.041-0.354-2.368-2.131-2.026c-1.756,0.338-2.092,1.295-1.566,2.836
		c0.159,0.467,0.15,0.973,0.003,1.459c-0.092,0.228-0.247,0.399-0.455,0.524c-0.688-1.997-1.379-3.993-2.069-5.991
		C75.929,48.227,76.159,48.198,76.388,48.166z"/>
	<path fill="#E1E1E3" d="M33.348,76.698c-0.123-0.107-0.239-0.225-0.369-0.32c-0.817-0.604-0.157-2.522-1.7-2.289
		c-1.477,0.223-3.158,0.45-3.939,2.131c-0.68-1.793-1.502-3.545-1.5-5.521c0.853,2.016,1.854,3.573,4.537,2.541
		c1.129-0.434,1.363-0.795,1.115-1.952c-0.397-1.854-1.252-3.626-1.131-5.585c0.207,0.016,0.413,0.032,0.62,0.048
		c0.188,2.876,1.188,5.565,1.899,8.322C33.102,74.93,33.196,75.822,33.348,76.698z"/>
	<path fill="#E9EAEC" d="M45.848,44.696c0.867-1.005,3.483-0.378,2.587-3.118c-0.452-1.384-0.973-1.506-2.07-1.128
		c-1.322,0.456-2.629,0.98-4.076,0.721c3.525-1.459,7.232-2.261,10.951-3.025c0.215,0.049,0.432,0.099,0.647,0.148
		c0.009,0.172-0.009,0.408-0.127,0.439c-2.294,0.605-3.31,2.174-3.394,4.456C48.776,43.444,47.698,45.23,45.848,44.696z"/>
	<path fill="#649DBD" d="M77.313,99.719c3.48-0.008,6.771,1.205,10.207,1.604c4.596,0.531,9.168,0.943,13.789,0.853
		c-2.507,1.359-5.169,0.514-7.73,0.402c-4.961-0.213-9.864-1.053-14.709-2.17C78.327,100.283,77.831,99.954,77.313,99.719z"/>
	<path fill="#E6E6E7" d="M79.382,60.2c-0.693-1.941-1.535-3.842-1.613-5.949l0.223-0.1c1.344,0.455,1.33,1.768,1.629,2.792
		c0.392,1.349,0.741,2.263,2.405,1.371c0.685-0.367,1.55-0.528,2.376-0.22c0.25,0.431,0.203,0.914,0.248,1.381
		c-0.857,1.899-3.084,1.279-4.38,2.377C79.191,61.721,79.899,60.631,79.382,60.2z"/>
	<path fill="#EDEEEF" d="M42.854,46.703c1.465-0.471,2.912-1.026,4.406-1.372c0.604-0.14,1.467-1.088,1.918-0.051
		c0.448,1.029-1.104,0.732-1.323,1.445c-3.501,0.604-2.958,3.031-2.454,5.441l-0.183,0.064c-1.521-0.846-2.151-2.428-1.455-3.721
		C44.581,46.992,43.333,47.191,42.854,46.703z"/>
	<path fill="#E1E1E3" d="M27.415,76.698c1.326,1.398,1.363,3.324,1.764,5.007c0.459,1.938,1.068,2.517,2.924,1.687
		c0.549-0.242,1.28-0.084,1.928-0.109c-4.402,1.979-4.422,1.98-5.689-2.505C27.962,79.434,27.721,78.057,27.415,76.698z"/>
	<path fill="#FAFAFA" d="M80.341,61.7c0.691-1.96,2.958-0.773,4.014-2.008c0.575-0.311,0.71,0.214,0.967,0.508
		c-0.221,1.316-1.367,1.292-2.295,1.586C82.142,61.43,81.182,63.4,80.341,61.7z"/>
	<path fill="#3B161C" d="M75.286,56.295c-0.25-0.421-0.689-0.83-0.713-1.264c-0.158-2.779-1.547-3.628-4.117-2.793
		c-0.271,0.209-0.504,0.171-0.696-0.113C73.465,50.428,74.731,50.08,75.286,56.295z"/>
	<path fill="#E7E8E9" d="M65.979,50.258c-0.226-0.047-0.45-0.097-0.676-0.145c2.317-1.968,4.972-2.641,7.95-2.057
		c0.051,0.072,0.103,0.143,0.154,0.213C70.987,49.145,68.549,49.946,65.979,50.258z"/>
	<path fill="#77AF67" d="M56.907,58.702c-1.509-1.596-1.672-3.555-1.514-5.602C56.2,54.885,56.825,56.719,56.907,58.702z"/>
	<path fill="#3E141C" d="M69.759,52.125c0.232,0.038,0.464,0.075,0.695,0.113c-3.172,0.323-2.254,2.572-2.099,4.461
		C66.618,53.447,66.898,52.531,69.759,52.125z"/>
	<path fill="#DBDBDC" d="M80.341,61.7c0.867,0.878,1.807-0.469,2.686,0.086c-3.266,1.607-3.266,1.607-3.645-1.586
		C79.702,60.7,80.021,61.2,80.341,61.7z"/>
	<path fill="#DBDBDC" d="M85.321,60.201c-0.322-0.169-0.645-0.339-0.967-0.508c-0.018-0.509-0.035-1.019-0.052-1.526
		c-0.976-0.812-1.233-1.771-0.599-2.912c0.088-0.053,0.182-0.097,0.276-0.134C84.765,56.725,85.124,58.442,85.321,60.201z"/>
	<path fill="#1A2A16" d="M54.794,49.305c-1.453-1.48-2.969,0.103-4.446-0.088C51.852,48.156,53.354,47.141,54.794,49.305z"/>
	<path fill="#162D3B" d="M102.312,67.284c-1.161-0.689-2.322-1.38-3.483-2.07C100.395,65.221,101.649,65.754,102.312,67.284z"/>
	<path fill="#5D93AC" d="M103.397,100.78c0.557-1.145,1.379-2.02,2.57-2.516C105.478,99.477,104.64,100.336,103.397,100.78z"/>
	<path fill="#1A1D26" d="M70.769,100.762c0.527-0.021,1.057-0.043,1.586-0.065c0.527,0.308,1.205,0.409,1.473,1.075
		C72.688,101.797,71.691,101.389,70.769,100.762z"/>
	<path fill="#8ABB7C" d="M51.837,63.225c0.104-0.518-0.187-1.104,0.322-1.612c0.269,0.899,0.377,1.733-0.149,2.539
		C51.952,63.842,51.896,63.534,51.837,63.225z"/>
	<path fill="#696E76" d="M69.355,96.758c-0.021-0.5-0.041-1-0.062-1.5c0.724,0.434,0.729,1.217,0.934,1.904
		C69.893,97.124,69.499,97.211,69.355,96.758z"/>
	<path fill="#BAC5C9" d="M127.296,27.586c-0.707,0.426-1.41,0.861-2.124,1.276c-0.96,0.56-1.399,1.25-1.132,2.467
		c0.244,1.117,0.414,2.369,0.158,3.454c-0.559,2.385-0.664,4.271,2.012,5.613c1.738,0.873-0.068,1.939-0.455,2.854
		c-0.365,0.859-0.959,1.795-2.034,0.822c-1.866-1.689-3.473-1.385-5.186,0.266c-0.63,0.605-1.562,1.025-2.43,1.23
		c-2.216,0.523-3.626,1.52-3.297,4.09c0.178,1.391-0.831,1.523-1.79,1.202c-0.975-0.326-3,0.726-2.664-1.492
		c0.359-2.374-0.587-3.55-2.688-4.288c-0.836-0.294-1.676-0.853-2.27-1.511c-1.55-1.712-3.095-2.214-5.199-0.858
		c-2.046,1.318-1.939-1.037-2.647-1.858c-0.904-1.05-0.381-1.847,0.799-2.232c2.243-0.733,2.983-2.176,2.281-4.432
		c-0.143-0.453-0.144-1.027,0.001-1.479c0.842-2.676,0.995-4.892-2.229-6.318c-1.513-0.67,0.073-1.821,0.488-2.676
		c0.393-0.81,0.95-1.893,2.02-0.931c2.309,2.078,4.302,1.375,6.358-0.356c0.556-0.467,1.299-0.844,2.008-0.965
		c2.1-0.359,2.761-1.687,2.57-3.576c-0.271-2.692,1.804-1.767,3.031-1.938c1.712-0.239,1.604,1.042,1.432,2.147
		c-0.323,2.084,0.561,3.305,2.521,3.933c0.699,0.224,1.451,0.562,1.958,1.069c1.816,1.826,3.557,2.646,6.039,0.902
		c1.477-1.037,1.504,0.898,2.062,1.646C127.022,26.293,127.995,26.766,127.296,27.586z"/>
	<path fill="#0E1F1D" d="M111.319,53.633c-1.386,0.037-2.771,0.103-4.158,0.099c-0.99-0.003-1.784-0.326-1.76-1.539
		C107.069,53.924,109.479,52.61,111.319,53.633z"/>
	<path fill="#838C96" d="M127.296,27.586c-0.137-0.646-0.271-1.293-0.402-1.94C127.406,26.215,128.503,26.662,127.296,27.586z"/>
	<path fill="#7AC967" d="M106.343,57.172c-0.329,0.004-0.658,0.008-0.986,0.012c-0.729-0.993-0.709-1.987-0.001-2.981
		c1.095,1.157,2.843,0.624,4.023,1.56c-0.153,0.154-0.31,0.311-0.462,0.465C108.166,56.833,107.052,56.451,106.343,57.172z"/>
	<path fill="#D34865" d="M122.392,63.215c2.237-4.459,5.492-7.793,10.268-9.562c1.904-0.706,2.688-0.462,2.69,1.799
		c0.01,4.562,0.311,9.122,0.398,13.685c0.028,1.594,0.505,2.57,2.101,3.213c4.686,1.888,9.282,3.994,13.951,5.924
		c1.818,0.752,2.256,1.585,0.636,2.969c-0.904,1.119-2.026,2.021-3.017,3.057c-6.346,5.116-15.509,5.092-21.746-0.056
		c-0.441-0.364-0.92-0.687-1.381-1.024c-3.499-2.816-4.904-6.66-5.377-10.961c0.117-2.555,1-5.01,0.983-7.582
		C122.089,64.197,121.991,63.623,122.392,63.215z"/>
	<path fill="#290910" d="M121.3,72.231c0.104,4.371,2.385,7.754,4.992,10.988c-2.704-0.69-3.676-3.252-4.441-5.246
		c-1.426-3.7-2.164-7.723-1.203-11.779c0.088-0.371,0.436-0.68,0.66-1.018c0.358,0.27,0.484,0.649,0.516,1.076
		C122.325,68.303,120.675,70.168,121.3,72.231z"/>
	<path fill="#1A1C21" d="M140.771,94.25c0.021-1.025,0.04-2.052,0.062-3.078c0.475-0.938,1.268-1.098,2.204-0.895
		c-0.815,0.521-1.687,0.854-1.692,2.169c-0.041,6.403-0.326,12.809,0.123,19.209c-1.023-0.613-0.625-1.633-0.636-2.48
		C140.777,104.201,140.784,99.225,140.771,94.25z"/>
	<path fill="#913C4F" d="M149.419,84.299c0.471-1.545,1.83-2.216,3.016-3.056C151.851,82.676,150.87,83.719,149.419,84.299z"/>
	<path fill="#501C24" d="M121.392,66.249c-0.028-0.357-0.057-0.714-0.084-1.072c0.196-0.744,0.304-1.539,1.083-1.961
		c-0.021,0.474-0.043,0.947-0.065,1.42C121.755,65.024,122.616,66.241,121.392,66.249z"/>
	<path fill="#6CBEE8" d="M151.315,66.112c2.898-2.039,5.836-4.023,8.676-6.141c1.351-1.004,1.99-0.609,2.605,0.742
		c1.721,3.775,1.877,7.668,1.039,11.664c-0.312,1.479-1.123,1.59-2.369,1.045c-3.635-1.589-7.295-3.119-10.945-4.672
		C148.388,67.016,150.913,66.965,151.315,66.112z"/>
	<path fill="#669BB8" d="M151.315,66.112c-0.071,0.979-2.051,1.234-0.994,2.638c-0.664,0.005-1.521-0.083-1.348-0.889
		C149.213,66.764,150.294,66.383,151.315,66.112z"/>
	<path fill="#81C66F" d="M160.452,110.145c-2.307-1.318-3.72-3.098-3.049-5.943c0.477-0.672,0.951-1.342,1.426-2.012l0.021-0.012
		c0.586-0.48,1.316-0.646,1.994-0.929c3.373,0.104,5.077,1.558,5.086,4.339C165.938,108.49,164.112,110.01,160.452,110.145z"/>
	<path fill="#C0C6C9" d="M160.843,101.25c-0.542,0.572-1.188,0.923-1.994,0.927C159.259,101.322,159.962,101.098,160.843,101.25z"/>
	<path fill="#87C4E3" d="M151.364,35.188c1.852,0.473,3.709-0.064,5.562,0.051c-1.746,1.557-3.674,0.934-5.589,0.465
		C151.347,35.532,151.355,35.36,151.364,35.188z"/>
	<path fill="#87C4E3" d="M149.499,34.281c-0.08-0.347-0.16-0.694-0.24-1.041c1.151,0.158,1.781,0.884,2.1,1.942
		C150.494,35.387,149.969,34.891,149.499,34.281z"/>
	<path fill="#FEFEFE" d="M126.026,135.264c4.547-3.076,6.491-7.477,6.116-12.818c-0.126-1.787,0.345-2.256,1.942-2.129
		c0.911,0.074,1.832,0.117,2.746,0.094c1.271-0.029,1.491,0.695,1.479,1.76c-0.013,0.996,0.326,1.91,1.541,1.809
		c1.136-0.098,1.42-0.975,1.42-1.994c-0.003-1.832,0.115-3.668,0.012-5.494c-0.099-1.742,0.551-1.965,2.065-1.486
		c5.079,1.607,8.66,6.672,8.389,12.014c-0.275,5.471-4.134,10.189-9.853,10.996c-3.105,0.438-3.807,1.785-4.271,4.512
		c-3.018,17.6-16.915,30.418-34.751,31.469c-20.259,1.193-36.868-13.217-39.517-32.648c-0.301-2.205-0.84-3.148-3.253-3.309
		c-5.222-0.346-9.794-4.936-10.38-9.934c-0.715-6.113,2.227-11.082,7.605-13.055c1.799-0.658,2.854-0.697,2.635,1.701
		c-0.143,1.568-0.072,3.162-0.043,4.742c0.019,1.029,0.174,2.166,1.443,2.273c1.334,0.111,1.652-0.98,1.604-2.035
		c-0.062-1.297,0.601-1.559,1.679-1.506c0.831,0.039,1.674,0.09,2.497,0c1.686-0.184,1.994,0.438,1.906,2.119
		c-0.379,7.188,3.978,13.242,10.606,15.08c6.712,1.859,13.327-1.066,16.829-7.494c1.269-2.328,1.759-4.885,1.467-7.486
		c-0.188-1.684,0.229-2.344,1.939-2.123c0.651,0.084,1.333,0.027,1.996-0.033c1.803-0.16,1.456,1.004,1.421,2.121
		c-0.183,5.734,1.708,10.416,6.96,13.328C115.606,138.656,120.856,138.289,126.026,135.264z"/>
	<path fill="#6DBEEA" d="M114.896,112.221c2.182-0.209,4.369-0.484,6.475,0.434c0.975,0.562,2.092,0.842,2.995,1.535
		c2.72,1.59,3.7,4.385,4.893,7.037c1.495,4.287-1.394,10.4-5.878,12.447c-2.631,1.062-5.385,1.236-8.172,1.109
		c-0.239-0.035-0.479-0.1-0.704-0.184c-0.987-0.48-1.864-1.25-3.063-1.217c-2.965-1.318-4.292-3.852-5.04-6.811
		c-0.006-1.939-0.012-3.875-0.017-5.812c0.44-2.152,1.39-4.025,3.061-5.492l-0.019,0.02
		C110.908,113.662,112.69,112.564,114.896,112.221z"/>
	<path fill="#6DBEEA" d="M92.257,131.158c-3.344,2.947-7.051,4.691-11.62,3.391c-4.582-1.305-7.468-4.328-8.331-8.979
		c-0.859-4.627,0.609-8.596,4.47-11.396c3.64-2.639,7.599-3.158,11.728-1.047c0.736,0.377,1.472,0.758,2.208,1.139
		C96.014,117.512,96.784,126.715,92.257,131.158z"/>
	<path fill="#0F1214" d="M106.398,126.574c1.54,2.439,2.286,5.529,5.442,6.643c0.82,0.359,1.786,0.391,2.479,1.055l-0.025-0.021
		c0.977,0.459,2.225,0.062,3.059,0.971c-3.385,1.506-5.635-0.916-7.921-2.557C107.505,131.281,105.672,129.461,106.398,126.574z"/>
	<path fill="#0B1C28" d="M92.257,131.158c3.991-7.156,3.632-11.076-1.548-16.895c2.764,0.77,4.02,3.217,4.413,5.469
		c0.598,3.428,1.009,7.131-1.415,10.293C93.307,130.547,93.114,131.254,92.257,131.158z"/>
	<path fill="#0F1214" d="M123.472,133.248c3.734-1.969,5.393-5.225,5.715-9.287c0.072-0.904,0.049-1.82,0.069-2.732
		c0.671,0.318,0.927,0.953,1.026,1.6c0.574,3.654-2.824,9.729-6.283,11.219c-0.35,0.15-0.807,0.051-1.214,0.062
		C122.683,133.557,123.084,133.408,123.472,133.248z"/>
	<path fill="#0F1214" d="M126.026,135.264c-4.337,3.576-11.369,3.785-15.768,0.471c2.584,1.051,5.317,1.436,8.062,1.658
		c1.82,0.146,3.493-0.674,5.173-1.275C124.334,135.816,125.046,135.148,126.026,135.264z"/>
	<path fill="#1A1C21" d="M133.896,99.329c1.28-1.625,2.86-2.777,4.946-3.127c-0.25,3.158,0.609,6.369-0.444,9.49
		c-0.034-2.238-0.056-4.478-0.108-6.716c-0.015-0.551,0.271-1.24-0.298-1.613c-0.64-0.42-1.022,0.293-1.499,0.553
		C135.629,98.387,134.923,99.151,133.896,99.329z"/>
	<path fill="#6CB4D8" d="M123.472,133.248c-0.229,0.287-0.456,0.574-0.687,0.859h0.024c-1.193,0.838-2.536,1.113-3.969,1.051
		c-0.496,0.021-0.994,0.039-1.491,0.059c-1.013-0.344-2.215-0.092-3.059-0.969C117.401,134.365,120.466,134.074,123.472,133.248z"/>
	<path fill="#0F1F2B" d="M114.896,112.221c-1.934,0.826-3.742,1.879-5.472,3.066C110.581,113.08,112.399,112.047,114.896,112.221z"
		/>
	<path fill="#0F1F2B" d="M109.442,115.27c-1.021,1.83-2.041,3.66-3.061,5.492C106.383,118.363,107.176,116.404,109.442,115.27z"/>
	<path fill="#0F1214" d="M118.843,135.158c1.323-0.35,2.646-0.701,3.969-1.051C121.764,135.494,120.457,135.906,118.843,135.158z"/>
	<path fill="#5D8DAA" d="M124.365,114.189c-1.181-0.156-2.2-0.621-2.995-1.535C122.61,112.693,123.647,113.129,124.365,114.189z"/>
	<path fill="#7EC46B" d="M150.392,55.84c-1.672,1.215-3.348,2.424-5.013,3.648c-0.89,0.652-1.516,0.74-1.563-0.639
		c-0.146-4.057-0.283-8.112-0.453-12.168c-0.044-1.064,0.389-1.611,1.451-1.452c3.271,0.487,6.576,0.915,9.03,3.514
		c2.78,2.339,2.741,2.752-0.339,4.726C152.406,54.172,151.262,54.83,150.392,55.84z"/>
	<path fill="#7EBC6D" d="M150.392,55.84c0.312-1.271,1.473-1.812,2.371-2.439c2.812-1.963,2.861-1.893,1.081-4.657
		c0.948-0.038,1.397,0.744,2.016,1.241c1.062,0.854,1.198,1.656-0.107,2.456C153.944,53.542,152.177,54.704,150.392,55.84z"/>
	<path fill="#85C473" d="M106.343,57.172c0.39-1.588,1.662-0.779,2.574-0.945c-0.336,0.336-0.675,0.672-1.011,1.008
		C107.387,57.213,106.864,57.193,106.343,57.172z"/>
	<path fill="#F8FCFD" d="M91.374,74.703c0.506-1.423,0.868-3.015,2.991-2.507c1.52,1.363,0.326,2.998,0.45,4.501
		c-0.02,0.245-0.066,0.483-0.141,0.718c-0.381,1.023-0.699,2.064-0.846,3.153c-1,2.608-1.787,5.276-2.282,8.026
		c-0.88,1.037-0.3,2.568-1.216,3.596l0.006-0.006c-0.389,1.378-0.293,2.938-1.531,3.99l0.033-0.006
		c-2.28,0.635-3.198-0.27-2.766-2.568c0.549-2.912,1.428-5.723,2.428-8.502c0.367-1.024,0.271-2.125,0.504-3.17
		c1.037-1.028,0.447-2.648,1.354-3.726l0.027,0.019C90.771,77.064,90.921,75.84,91.374,74.703z"/>
	<path fill="#F8FCFC" d="M82.354,91.186c-1.433-1.709-3.312-2.898-4.991-4.32c-0.971-0.822-2.262-1.5-1.988-3.136
		c0.285-0.999,1.209-1.162,1.985-1.521c1.783-1.402,3.923-2.312,5.487-4.012c0.779-1.105,1.932-1.134,2.724-0.363
		c1.033,1.006,0.683,2.223-0.346,3.193c-0.427,0.74-1.333,0.68-1.923,1.148c-3.84,2.021-3.9,2.485-0.609,4.922
		c0.531,0.393,1.1,0.734,1.648,1.102c0.178,0.189,0.337,0.393,0.478,0.611c0.667,1.512,0.437,2.576-1.414,2.832
		C82.995,91.631,82.649,91.465,82.354,91.186z"/>
	<path fill="#F7FBFC" d="M99.372,79.094c1.632,1.062,3.05,2.465,4.939,3.117c2.457,1.555,2.569,3.072,0.29,4.897
		c-0.949,0.761-1.968,1.438-2.888,2.239c-0.706,0.424-1.339,0.957-2.032,1.404c-0.211,0.117-0.407,0.256-0.592,0.41
		c-1.102,0.866-2.274,1.229-3.172-0.135c-0.877-1.333-0.034-2.403,1.013-3.153c0.795-0.569,1.621-1.118,2.446-1.657l-0.007,0.012
		c1.194-1.02,0.868-2.031-0.014-3.041l0.001,0.001c-0.959-0.531-2.064-0.873-2.562-1.999c-1.393-2.248-1.312-2.615,0.721-3.37
		C98.31,77.99,98.736,78.692,99.372,79.094z"/>
	<path fill="#7AC0E4" d="M84.364,88.67c-0.01-0.156-0.018-0.312-0.022-0.471c2.479,0.977,3.632-0.303,4.024-4.322
		c0.092-0.943-0.635-2.25,0.943-2.703c0.162,0.115,0.229,0.242,0.197,0.383c-0.032,0.146-0.072,0.219-0.119,0.219
		c-0.393,3.898-1.854,7.539-2.749,11.316c-0.576,2.43-0.286,2.916,2.2,3.073c-0.488,1.024-1.324,1.372-2.232,0.739
		c-1.714-1.193-1.222-2.852-0.581-4.343c-1.114-1.038-3.069,0.696-3.672-1.38c0.306,0.021,0.61,0.041,0.917,0.062
		C85.402,91.081,85.493,90.868,84.364,88.67z"/>
	<path fill="#74BEE5" d="M101.329,89.151c0.867-0.76,1.738-1.516,2.604-2.277c2.487-2.201,2.487-2.201,0.382-4.662
		c1.326-0.24,2.423,0.346,2.82,1.478c0.475,1.353-0.564,2.757-1.387,3.409c-1.701,1.354-3.391,2.757-5.175,4.015
		c-0.286,0.201-0.806,0.067-1.218,0.091c-0.146-0.109-0.198-0.225-0.154-0.342c0.047-0.118,0.092-0.18,0.14-0.18l-0.021-0.027
		C100.085,90.282,100.675,89.672,101.329,89.151z"/>
	<path fill="#7CC0E4" d="M91.312,88.618c0.202-2.93,1.193-5.666,2.071-8.431c0.521-0.941,0.65-2.005,0.938-3.021l-0.014,0.017
		c0.491-0.176,0.088-1.293,1.038-0.986c0.003,0.333,0.006,0.667,0.009,1.001c0.271,0.272,0.355,0.608,0.326,0.981
		c-0.148,0.691-0.2,1.42-0.723,1.977c-1.41,2.174-2.083,4.621-2.611,7.116c-0.157,0.743-0.388,1.421-0.953,1.95
		c-0.162-0.115-0.229-0.242-0.198-0.383C91.226,88.692,91.265,88.618,91.312,88.618z"/>
	<path fill="#7CC2E6" d="M99.34,90.682c0.006,0.174,0.011,0.348,0.017,0.521c-0.885,1.755-2.701,1.347-3.509,0.647
		c-1.015-0.877-0.9-2.577,0.172-3.758c0.892-0.98,2.063-1.562,3.358-1.875c-0.362,0.812-1.176,1.143-1.79,1.688
		c-0.881,0.777-2.373,1.43-1.291,2.98C97.326,92.363,98.338,91.018,99.34,90.682z"/>
	<path fill="#E0F4FA" d="M94.957,80.156c-0.061-0.708-0.312-1.455,0.388-2.019c0.846-0.68,1.691-1.441,2.475,0.072
		c-3.055,0.545-0.79,1.943-0.484,3.026c-0.348,0.272-0.675,0.254-0.982-0.062C95.887,80.834,95.422,80.495,94.957,80.156z"/>
	<path fill="#82C3E5" d="M84.733,81.141c0.622-0.894,1.762-1.723,0.773-2.95c-0.795-0.987-1.77-0.343-2.66,0.008
		c-0.479-1.679,1.036-0.992,1.564-1.129c0.73-0.19,1.795-0.062,1.895,1.05c0.1,1.112,0.423,2.387-0.941,3.092
		C85.134,81.37,84.925,81.338,84.733,81.141z"/>
	<path fill="#7CC2E6" d="M99.359,83.188c0.649,0.428,1.788,0.475,1.811,1.396c0.021,0.979-0.863,1.451-1.796,1.646
		C99.368,85.215,99.363,84.202,99.359,83.188z"/>
	<path fill="#86C5E0" d="M97.819,78.209c-0.795-1.051-1.643-0.297-2.475-0.072c0.003-0.313,0.006-0.627,0.009-0.94
		c1.615,0.048,3.492-0.458,4.02,1.897C98.601,79.245,98.2,78.743,97.819,78.209z"/>
	<path fill="#86C5E0" d="M95.345,76.196c-0.346,0.329-0.691,0.656-1.037,0.986c-0.174-1.666,1.161-3.312,0.06-4.986
		C96.353,73.124,94.936,74.883,95.345,76.196z"/>
	<path fill="#7CC2E6" d="M96.352,81.176c0.328,0.02,0.655,0.039,0.982,0.061c0.675,0.65,1.351,1.302,2.024,1.953
		C97.808,83.34,96.783,82.7,96.352,81.176z"/>
	<path fill="#89C3E3" d="M91.312,88.618c0.026,0.201,0.054,0.402,0.081,0.604c-0.398,0.975,0.774,2.508-1.058,2.97
		C90.271,90.891,90.569,89.694,91.312,88.618z"/>
	<path fill="#89C3E3" d="M88.808,96.174c0.511-1.33,1.021-2.66,1.532-3.99C90.329,93.706,90.752,95.393,88.808,96.174z"/>
	<path fill="#85C2E4" d="M89.388,81.777c-0.026-0.2-0.053-0.401-0.078-0.603c0.393-0.976-0.768-2.5,1.051-2.972
		C90.446,79.506,90.101,80.691,89.388,81.777z"/>
	<path fill="#9FD1ED" d="M91.374,74.703c0.032,1.274-0.195,2.476-0.986,3.519C90.258,76.92,90.519,75.727,91.374,74.703z"/>
	<path fill="#97C8E2" d="M77.359,82.209c-0.661,0.506-1.323,1.014-1.985,1.521C75.178,82.102,76.263,82.148,77.359,82.209z"/>
	<path fill="#7DC0E6" d="M84.733,81.141c0.21,0.023,0.42,0.047,0.631,0.07c-0.213,1.336-1.252,0.907-2.062,0.967
		C83.595,81.578,84.073,81.234,84.733,81.141z"/>
	<path fill="#1A1D26" d="M67.696,99.254c1.326-0.074,2.489,0.184,3.116,1.53C69.61,100.606,68.579,100.084,67.696,99.254z"/>
	<path fill="#FEFEFE" d="M32.782,60.157c-1.512,0.075-2.16-0.225-2.412-1.238c-0.557-2.248-1.104-4.5-1.793-6.709
		c-0.412-1.318,0.375-1.67,1.283-1.921c2.233-0.616,4.506-1.097,6.725-1.761c1.104-0.33,1.533,0.062,1.799,1.029
		c0.615,2.234,1.295,4.453,1.871,6.697c0.205,0.801,0.289,1.674-0.861,1.994C37.003,58.916,34.626,59.623,32.782,60.157z"/>
	<path fill="#FCFCFC" d="M21.765,53.84c0.396-2.584,2.727-1.677,4.091-2.289c1.224-0.549,1.409,0.838,1.45,1.662
		c0.107,2.105,1.029,3.976,1.658,5.907c0.51,1.57,0.007,2.031-1.331,2.427c-3.487,1.032-3.464,1.062-4.406-2.517
		C22.767,57.283,22.247,55.549,21.765,53.84z"/>
	<path fill="#FBFBFB" d="M55.851,43.194c1.63,0.131,3.361-1.586,4.646-0.562c1.186,0.942,1.049,3.002,1.449,4.586
		c0.139,0.551,0.577,1.041,0.654,1.59c0.15,1.064,0.986,2.309-0.027,3.188c-1.043,0.904-2.39,1.08-3.643,0.143
		c-0.35-1.446-0.696-2.894-1.051-4.338c-0.793-3.231-1.479-3.682-4.676-2.965c-0.639,0.143-1.235,0.451-2.155,0.156
		C52.523,43.643,54.443,44.067,55.851,43.194z"/>
	<path fill="#FBFBFB" d="M42.854,46.703c0.659,0,1.319,0,2.356,0c-1.774,2.034-0.938,3.785,0.01,5.528
		c0.121,0.812,0.104,1.681,0.395,2.428c0.625,1.607-0.302,2.078-1.543,2.389c-1.145,0.285-2.052,0.328-2.328-1.267
		c-0.238-1.364-0.906-2.649-1.283-3.998C39.405,47.999,39.426,47.993,42.854,46.703z"/>
	<path fill="#FBFBFB" d="M29.274,44.647c2.083,0.412,3.905-0.652,5.792-1.163c1.451-0.394,1.745,0.228,2.065,1.278
		c0.367,1.207,0.275,2.098-1.199,2.439c-2.014,0.467-4.01,1.008-5.999,1.568c-1.065,0.3-2.24,0.845-2.509-0.83
		c-0.184-1.143-0.95-2.789,1.378-2.82c0.173-0.002,0.341-0.318,0.512-0.488L29.274,44.647z"/>
	<path fill="#FBFBFB" d="M50.366,43.189c-0.59-3.452-0.59-3.452,3.521-4.897c1.278-0.265,2.588-0.434,3.825-0.826
		c1.008-0.32,1.605-0.091,1.916,0.857c0.315,0.963,0.56,1.999-0.662,2.527c-1.182,0.511-2.413,0.9-3.624,1.344
		C53.786,43.043,51.948,42.471,50.366,43.189z"/>
	<path fill="#FAFBFB" d="M33.136,64.159c-0.896,0.03-1.503-0.2-1.668-0.982c-0.17-0.805,0.312-1.248,1.031-1.44
		c2.473-0.666,4.947-1.321,7.427-1.962c1.157-0.299,1.399,0.549,1.637,1.374c0.325,1.136-0.567,0.897-1.159,1.054
		C37.927,62.852,35.456,63.531,33.136,64.159z"/>
	<path fill="#FDFDFD" d="M73.253,48.057c-2.743,0.326-5.35,1.184-7.95,2.058c-0.316,0.022-0.634,0.044-0.949,0.065
		c-0.608-2.226-1.216-4.453-1.827-6.678c-0.303-1.101-0.184-1.973,1.131-2.283c2.164-0.51,4.354-0.945,6.471-1.604
		c1.271-0.395,1.904-0.045,2.166,1.137C72.829,43.158,74.499,45.42,73.253,48.057z"/>
	<path fill="#F9F9FA" d="M78.413,34.609c-0.635,1.204-3.848,2.728-4.957,2.226c-1.336-0.604-1.51-2.041-0.918-2.964
		c0.76-1.187,2.457-1.122,3.763-1.504c1.129-0.331,1.198,0.828,1.543,1.538c0.135,0.277,0.381,0.502,0.577,0.75L78.413,34.609z"/>
	<path fill="#F8F8F8" d="M68.815,72.521c0.126,1.454-1.289,1.282-2.201,1.598c-0.857,0.297-1.742,0.494-2.01-0.899
		c-0.359-1.864-0.752-3.744-1.376-5.531c-0.569-1.631-0.321-2.307,1.478-2.758c1.9-0.478,2.347,0.345,2.668,1.867
		C67.769,68.656,68.296,70.487,68.815,72.521z"/>
	<path fill="#FAFAFA" d="M83.704,55.254c0.201,0.971,0.399,1.941,0.599,2.912c-4.304,1.67-4.3,1.668-5.687-2.441
		c-0.182-0.534-0.418-1.049-0.627-1.573c-0.094-0.57-0.152-1.149-0.287-1.709c-0.717-2.979-0.184-3.63,2.909-3.902
		c1.267-0.11,1.355,0.823,1.564,1.513C82.7,51.782,82.902,53.605,83.704,55.254z"/>
	<path fill="#111725" d="M120.492,33.93c-0.112,5.016-4.177,8.83-9.28,8.713c-4.589-0.104-8.531-4.358-8.438-9.105
		c0.096-4.831,4.159-8.947,8.697-8.812C116.904,24.889,120.612,28.672,120.492,33.93z"/>
	<path fill="#BA4C64" d="M121.392,66.249c0.312-0.537,0.623-1.074,0.935-1.611c0.294,2.617-0.347,5.106-1.024,7.594
		C120.261,70.219,121.653,68.247,121.392,66.249z"/>
	<path fill="#111827" d="M115.851,157.68c-0.328,0.672-0.655,1.344-0.982,2.016c-0.818,1.213-1.979,2.111-2.957,3.176
		c-0.519,0.381-0.824,1.17-1.691,0.869c-0.469-0.641-1.082-1.219-0.944-2.129c1.867-1.455,3.626-2.99,3.961-5.543
		c0.041-0.678,0.324-1.318,0.274-2c-1.561-1.496-3.49-0.652-5.196-0.697c-5.797-0.154-11.601-0.051-17.402-0.062
		c-3.534-0.012-3.749,0.605-2.114,3.73c0.193,0.369,0.416,0.719,0.683,1.039c0.231,0.277,0.431,0.574,0.611,0.885
		c0.326,1.246,1.542,1.516,2.4,2.176c0.183,0.326,0.196,0.67,0.079,1.021c-0.308,0.531-0.722,0.955-1.259,1.256
		c-2.106-0.096-2.673-2.207-4.129-3.156c-0.117-0.17-0.233-0.338-0.351-0.508c-0.438-1.223-0.729-2.518-1.69-3.482
		c-0.472-1.85-1.912-3.625-0.401-5.613c2.633-0.43,5.283-0.166,7.924-0.182c7.214-0.047,14.43,0.074,21.64-0.072
		c2.221-0.045,3.271,0.555,3.117,2.822c-0.037,0.326-0.073,0.652-0.11,0.98C116.711,155.316,116.38,156.539,115.851,157.68z"/>
	<path fill="#161C2A" d="M97.776,139.611c0-1.496-0.006-2.992,0.003-4.486c0.005-0.949,0.442-1.693,1.404-1.748
		c1.128-0.061,1.595,0.771,1.613,1.793c0.038,2.074,0.136,4.158-0.021,6.223c-0.117,1.568,0.391,2.104,1.92,1.963
		c1.164-0.107,2.607-0.174,2.605,1.479c-0.002,1.662-1.459,1.473-2.616,1.492c-4.941,0.092-4.941,0.092-4.936-4.971
		c0.001-0.582,0-1.162,0-1.744C97.761,139.611,97.769,139.611,97.776,139.611z"/>
	<path fill="#110F11" d="M109.356,161.695c0.521,0.568,1.206,1.053,0.986,1.986c0.178,0.104,0.234,0.209,0.178,0.312
		c-0.058,0.104-0.117,0.156-0.176,0.156c-0.93,0.875-1.922,1.621-3.285,1.613c-1.375,0.404-2.743,0.859-4.21,0.678
		c-1.481-0.809-0.466-1.279,0.241-1.799c1.258-0.928,2.895-0.963,4.251-1.707c-0.269-0.807-0.754-1.344-1.208-1.902
		c-0.47-3.135-3.024-2.17-4.92-2.492c-1.521,0.426-2.767-0.357-4.062-0.93c-0.207-0.135-0.355-0.318-0.46-0.543
		c-0.005-0.256,0.093-0.465,0.278-0.639c0.75-0.426,1.474-0.902,2.296-1.195c3.591-0.697,6.627,0.375,9.161,2.938
		c0.753,0.764,1.369,1.643,1.297,2.812C109.658,161.25,109.534,161.486,109.356,161.695z"/>
	<path fill="#131B2B" d="M117.417,153.223c-0.45-2.508-2.159-2.59-4.287-2.566c-9.463,0.092-18.931,0.014-28.396-0.004
		c0.601-0.854,1.521-0.553,2.296-0.555c9.405-0.018,18.811-0.008,28.213,0.033C117.687,150.145,118.038,150.711,117.417,153.223z"/>
	<path fill="#121011" d="M102.354,166.176c1.61,0.334,3.118-0.492,4.706-0.408c-4.096,1.604-8.191,1.523-12.286-0.008
		c0.073-0.094,0.146-0.188,0.218-0.283C97.553,164.576,100.079,164.049,102.354,166.176z"/>
	<path fill="#121011" d="M91.347,163.197c0.021-0.646,0.354-0.982,1.001-1.004c1.136,0.246,2.12,0.834,3.126,1.375
		c0.503,0.271,1.116,0.48,1.054,1.191c-0.087,0.979-1.076,0.477-1.54,0.859c-0.07,0.045-0.144,0.092-0.214,0.141
		c-0.967,0.061-1.781-0.277-2.467-0.949C92.057,164.232,90.994,164.135,91.347,163.197z"/>
	<path fill="#141C29" d="M91.347,163.197c0.32,0.539,0.64,1.076,0.96,1.613c-2.17-0.998-3.858-2.537-5.126-4.555
		C88.946,160.703,89.419,162.982,91.347,163.197z"/>
	<path fill="#131B2B" d="M111.843,162.668c0.845-1.156,1.805-2.197,3.023-2.973c-0.29,1.436-1.315,2.275-2.449,3.029
		C112.204,162.924,112.013,162.904,111.843,162.668z"/>
	<path fill="#131B2B" d="M115.851,157.68c0.146-1.303,0.234-2.627,1.456-3.479C117.219,155.529,116.866,156.744,115.851,157.68z"/>
	<path fill="#141C29" d="M85.139,156.266c1.358,0.773,1.86,1.967,1.69,3.484C85.929,158.752,85.538,157.506,85.139,156.266z"/>
	<path fill="#1F2429" d="M111.843,162.668c0.189,0.021,0.383,0.037,0.574,0.059c-0.497,0.758-1.028,1.465-2.072,1.426
		c-0.014-0.154-0.014-0.312-0.002-0.469C110.843,163.344,111.343,163.006,111.843,162.668z"/>
	<path fill="#0E1829" d="M117.854,117.709c3.487-0.027,6.976,3.262,7.177,6.736c0.072,1.229-0.334,2.25-1.562,2.473
		c-1.252,0.227-1.984-0.553-2.202-1.824c-0.334-1.945-1.453-3.203-3.475-3.303c-2.264-0.107-3.19,1.395-3.655,3.357
		c-0.27,1.129-0.835,2.18-2.188,1.814c-1.31-0.352-1.645-1.514-1.526-2.797C110.729,120.729,114.167,117.74,117.854,117.709z"/>
	<path fill="#6CB4D8" d="M114.32,134.27c-1.012,0.086-1.748-0.479-2.479-1.055C112.934,132.941,113.833,133.121,114.32,134.27z"/>
	<path fill="#0F1929" d="M90.329,123.25c-0.002,0.578,0.048,1.162-0.017,1.734c-0.11,0.99-0.591,1.76-1.64,1.928
		c-1.148,0.186-1.613-0.615-1.924-1.537c-0.131-0.395-0.217-0.803-0.342-1.195c-0.51-1.625-1.64-2.469-3.324-2.465
		c-1.693,0.006-2.859,0.939-3.369,2.48c-0.444,1.346-0.53,3.117-2.535,2.529c-2.016-0.594-1.299-2.355-1.083-3.793
		c0.062-0.408,0.174-0.809,0.263-1.211c0.945-2.84,4.528-4.625,7.432-4.266C87.357,117.9,89.456,119.727,90.329,123.25z"/>
	<path fill="#6BB0D7" d="M90.329,123.25c-2.269-6.342-9.834-7.691-13.97-1.527c0.64-3.316,4.138-5.197,8.322-4.479
		C88.196,117.85,90.198,119.979,90.329,123.25z"/>
	<path fill="#86C5E0" d="M94.321,77.166c0.107,1.138-0.005,2.207-0.938,3.021C93.35,79.073,93.658,78.064,94.321,77.166z"/>
	<path fill="#DFF6FB" d="M84.364,88.67c0.989,0.454,1.252,1.27,0.826,2.174c-0.395,0.846-1.093,1.156-1.919,0.403
		C85.253,91.076,84.567,89.77,84.364,88.67z"/>
	<path fill="#9CC9E6" d="M101.329,89.151c-0.396,0.865-0.945,1.527-2.011,1.504C99.815,89.92,100.37,89.266,101.329,89.151z"/>
	<path fill="#FCFCFC" d="M117.464,33.723c-0.055,3.18-2.859,5.936-5.964,5.854c-3.394-0.087-6.051-2.755-6.038-6.06
		c0.011-3.201,2.901-5.896,6.244-5.816C114.86,27.777,117.516,30.555,117.464,33.723z"/>
	<path fill="#6DBCE6" d="M109.419,161.033c-1.354-4.023-6.917-6.492-10.604-5.186c-0.661,0.309-1.334,0.588-2.033,0.799l0.021-0.025
		c-0.978,1.223-2.564,1.852-3.255,3.352c-1.653,1.795-2.722,0.74-3.696-0.762c-0.144-0.168-0.286-0.338-0.429-0.508
		c-1.012-1.611-2.633-3.492-1.619-5.162c0.847-1.396,3.205-0.6,4.896-0.59c6.396,0.033,12.788-0.082,19.185,0.025
		c0.938,0.016,2.312-0.545,2.428,1.227c-0.466,0.521-0.669,1.115-0.523,1.812C112.905,158.188,111.966,160.309,109.419,161.033z"/>
	<path fill="#130F10" d="M94.987,165.621c0.463-0.521,2.274-0.865-0.004-1.645c-0.837-0.285-2.394-0.297-2.635-1.783
		c0.016-0.312,0.032-0.627,0.048-0.939c0.176-0.312,0.483-0.357,0.79-0.404c1.194-1.248,1.458-3.432,3.666-3.652
		c1.592-0.143,2.819,1.375,4.467,0.982c0.033,0.113,0.066,0.229,0.102,0.346c-0.688,1.082-1.977,0.58-2.875,1.098
		c-0.688,0.309-1.285,0.732-1.771,1.311c-0.876,1.041-0.466,1.604,0.705,1.881c2.218,0.484,4.438,0.525,6.658,0.049
		c0.886-0.191,1.834-0.328,2.021-1.484c0.083-0.076,0.167-0.152,0.251-0.229c1.537-0.52,0.601,1.684,1.747,1.592
		c-0.347,0.568-0.752,1.045-1.457,1.197c-1.646,0.355-3.299,0.717-4.345,2.24C99.991,164.758,97.46,165.58,94.987,165.621z"/>
	<path fill="#112338" d="M114.31,154.203c-0.335-1.066-1.213-0.939-2.045-0.939c-7.396-0.006-14.792-0.023-22.188-0.02
		c-2.584,0-2.725,0.24-1.752,2.723c0.357,0.914,0.729,1.824,1.096,2.736c-1.67-1.004-1.949-2.82-2.424-4.439
		c-0.349-1.189,0.625-1.561,1.658-1.564c2.127-0.014,4.256-0.01,6.387-0.01c5.86,0,11.725-0.016,17.587,0.021
		C113.524,152.715,114.991,152.318,114.31,154.203z"/>
	<path fill="#131B2B" d="M109.419,161.033c2.188-1.035,3.094-3.188,4.365-5.018c-0.4,2.73-1.689,4.771-4.43,5.68
		C109.377,161.475,109.398,161.254,109.419,161.033z"/>
	<path fill="#141C29" d="M93.337,161.178c-0.314,0.023-0.628,0.051-0.941,0.072c-1.265-0.158-2.62-0.209-2.544-2.041
		c1.103,0.498,2.054,2.604,3.418,0.324C93.812,160.061,93.8,160.611,93.337,161.178z"/>
	<path fill="#121011" d="M93.337,161.178c-0.022-0.549-0.045-1.098-0.067-1.645c0.756-1.48,1.922-2.467,3.533-2.914
		c0.017,0.191,0.033,0.383,0.05,0.574c-1.119,1.256-2.601,2.158-2.658,4.248C94.166,162.459,93.499,161.832,93.337,161.178z"/>
	<path fill="#130F10" d="M101.318,158.178c1.571-1.092,3.003,0.221,4.46,0.408c1.158,0.152,0.31,1.697,0.629,2.561
		c0.001-0.002-0.064,0.059-0.064,0.059c-0.312,0.213-0.607,0.105-0.901-0.039c-0.183-0.104-0.351-0.232-0.509-0.373
		c-0.439-0.432-0.896-0.844-1.454-1.121c-0.192-0.086-0.378-0.182-0.567-0.271c-0.573-0.275-1.244-0.424-1.516-1.113
		L101.318,158.178z"/>
	<path fill="#121011" d="M96.782,156.646c0.527-0.648,1.232-0.85,2.033-0.799C98.353,156.66,97.612,156.768,96.782,156.646z"/>
	<path fill="#CB4662" d="M97.263,163.23c-0.696-0.057-1.566,0.193-1.882-0.689c-0.281-0.785,0.253-1.406,0.775-1.914
		c0.624-0.604,1.146-1.395,2.152-1.441c1.69-0.525,3.385-0.045,5.077-0.021l-0.01-0.012c0.575,0.641,1.264,1.131,2.049,1.486
		l-0.012-0.018c0.739,2.203-0.991,2.582-2.35,2.744C101.158,163.596,99.188,163.662,97.263,163.23z"/>
	<path fill="#C04962" d="M97.263,163.23c1.72-0.016,3.44,0.037,5.158-0.061c1.585-0.088,2.85-0.695,2.991-2.549
		c0.312,0.193,0.618,0.389,0.929,0.582c0.171,0.881,0.506,1.703-0.904,2.025C102.692,163.861,99.989,164.227,97.263,163.23z"/>
	<path fill="#C04962" d="M103.388,159.164c-1.688,1.418-3.387-0.492-5.077,0.021c0.862-0.869,2.147-0.283,3.083-0.898
		C102.034,158.633,102.881,158.512,103.388,159.164z"/>
	<path fill="#C04962" d="M105.427,160.639c-0.987-0.076-1.927-0.219-2.049-1.486C104.38,159.207,104.989,159.805,105.427,160.639z"
		/>
</g>
</svg>
